<?xml version="1.0" standalone="no"?>
<!DOCTYPE svg PUBLIC "-//W3C//DTD SVG 20010904//EN"
 "http://www.w3.org/TR/2001/REC-SVG-20010904/DTD/svg10.dtd">
<svg version="1.0" xmlns="http://www.w3.org/2000/svg"
 width="384.000000pt" height="384.000000pt" viewBox="0 0 384.000000 384.000000"
 preserveAspectRatio="xMidYMid meet">

<g transform="translate(0.000000,384.000000) scale(0.100000,-0.100000)"
fill="#23c17a" stroke="none">
<path d="M1440 3489 c-312 -26 -595 -173 -805 -416 -168 -195 -261 -420 -283
-681 -41 -482 217 -944 651 -1163 176 -89 295 -119 497 -126 275 -9 474 46
704 194 l69 45 86 -86 86 -86 1 -62 c1 -106 20 -131 336 -444 156 -155 299
-290 318 -300 27 -15 57 -19 127 -19 90 0 92 0 149 40 106 74 149 203 109 326
-16 50 -41 78 -304 342 -319 322 -343 340 -449 341 l-62 1 -86 86 -86 86 55
84 c120 186 176 365 184 592 7 169 -4 255 -49 402 -104 342 -358 622 -688 758
-136 57 -232 77 -420 91 -25 2 -88 0 -140 -5z m330 -259 c168 -41 365 -159
482 -288 100 -112 183 -268 220 -418 32 -128 32 -334 0 -454 -58 -214 -184
-405 -352 -532 -88 -67 -246 -143 -355 -170 -126 -32 -322 -31 -450 0 -109 27
-267 102 -355 170 -170 129 -299 326 -352 538 -26 105 -31 311 -9 409 87 396
383 685 779 760 101 19 278 12 392 -15z"/>
</g>
</svg>
