<svg version="1.1" id="Layer_1" xmlns="http://www.w3.org/2000/svg" xmlns:xlink="http://www.w3.org/1999/xlink" x="0px" y="0px"
	 width="100%" viewBox="0 0 512 512" enable-background="new 0 0 512 512" xml:space="preserve">
<path fill="none" opacity="1.000000" stroke="none"
	d="
M288.777100,1.330751 
	C362.261658,1.000000 435.523407,1.035820 508.784790,0.894920 
	C512.473450,0.887826 513.097412,1.757346 513.091553,5.276858 
	C512.970032,78.205315 513.000000,151.134018 513.000000,224.531342 
	C509.827698,226.274704 509.215363,223.984344 508.901520,221.817444 
	C506.886017,207.901917 503.358521,194.322525 499.799438,180.344452 
	C494.428131,165.893723 489.371643,151.743088 482.139587,138.500488 
	C480.719055,135.899338 479.208862,133.337540 477.826172,130.304779 
	C470.172821,118.299217 462.528656,106.714401 453.822327,95.445480 
	C446.548431,86.961334 438.654602,79.532814 431.021179,71.384750 
	C424.345184,65.283363 417.749298,59.604607 410.340546,54.365204 
	C401.739197,47.271935 392.538757,41.705311 383.258881,36.261261 
	C381.831482,35.423866 380.272858,34.798183 378.865479,33.263729 
	C361.640747,24.792139 344.370392,17.400415 326.200806,12.318206 
	C315.446655,9.310163 304.523285,7.034240 293.487366,5.306244 
	C291.238190,4.954072 288.574921,5.070382 288.777100,1.330751 
z"/>
<path fill="none" opacity="1.000000" stroke="none"
	d="
M512.636108,288.777222 
	C513.000000,362.261658 512.964172,435.523407 513.105042,508.784790 
	C513.112183,512.473450 512.242676,513.097412 508.723145,513.091553 
	C435.794708,512.970032 362.865967,513.000000 289.468658,513.000000 
	C287.662994,509.359589 290.483582,509.198761 292.682404,508.816986 
	C299.700714,507.598297 306.696442,506.284790 313.676758,504.855499 
	C327.198212,502.086792 339.964264,496.784821 353.599976,493.092590 
	C361.216705,488.796143 368.837860,485.394287 376.471405,482.027557 
	C377.811798,481.436401 379.301727,481.195343 380.627655,479.819824 
	C387.646210,475.245544 394.349548,470.826233 401.324982,466.863892 
	C402.812256,466.019073 404.052429,465.137756 405.243652,463.514648 
	C412.414856,458.645294 418.474091,452.866913 425.744385,448.144989 
	C431.998718,440.918457 438.576660,434.505737 445.662994,428.127319 
	C451.755890,420.234070 458.136444,413.010773 464.021301,404.967133 
	C469.664886,397.281342 474.111816,389.227448 479.187378,381.167847 
	C483.936432,372.306000 488.108917,363.557831 492.242798,354.374084 
	C495.940247,343.547791 499.994598,333.226318 502.787659,322.073425 
	C505.347778,312.237579 507.181610,302.665680 508.733826,293.035431 
	C509.079285,290.892090 509.275726,288.612793 512.636108,288.777222 
z"/>
<path fill="none" opacity="1.000000" stroke="none"
	d="
M225.222961,512.656494 
	C151.738495,513.000000 78.476913,512.964294 5.215675,513.105042 
	C1.528364,513.112122 0.902427,512.244446 0.908335,508.723633 
	C1.030155,436.128357 1.000000,363.532806 1.000000,290.468658 
	C4.603899,288.662292 4.815592,291.466766 5.236268,293.651947 
	C7.047773,303.061646 8.689973,312.501801 11.170907,321.773621 
	C12.196258,325.605591 13.237125,329.430908 14.430124,333.625000 
	C19.843193,350.702118 27.048260,366.587006 35.342529,382.398834 
	C43.060261,394.965179 51.195370,406.809692 60.110458,418.541779 
	C67.417130,427.040314 75.233261,434.563782 83.129349,442.487549 
	C90.828682,450.306366 99.452209,456.482025 108.013000,463.272461 
	C115.171440,468.363739 122.287529,472.902222 129.592209,477.141632 
	C131.035858,477.979523 132.426651,478.855896 133.835449,480.324860 
	C142.231903,483.436981 149.511505,488.171478 157.899643,491.367188 
	C167.945206,495.384521 177.810059,498.815033 187.854874,501.668060 
	C198.572571,504.712250 209.480362,506.954041 220.491287,508.683533 
	C222.726761,509.034637 225.391388,508.928162 225.222961,512.656494 
z"/>
<path fill="none" opacity="1.000000" stroke="none"
	d="
M1.388956,224.222198 
	C1.000000,151.071655 1.035980,78.143234 0.894901,5.215154 
	C0.887765,1.526443 1.757422,0.902554 5.276860,0.908452 
	C77.871979,1.030102 150.467361,1.000000 223.531342,1.000000 
	C225.329727,4.198204 222.941788,4.700624 220.830200,5.151458 
	C215.307968,6.330470 209.710358,7.122905 204.185501,8.303729 
	C184.271545,12.559913 165.083038,18.975107 146.765869,27.873497 
	C143.182907,29.614088 139.297363,30.618101 135.592758,32.937431 
	C123.423851,40.222221 111.979721,47.929935 100.417389,56.093376 
	C91.402893,63.318417 83.658821,71.433815 75.181236,78.732231 
	C74.545738,79.279335 74.129684,79.993401 73.618752,81.059914 
	C67.600021,86.756157 62.360909,92.692802 57.625656,99.074600 
	C56.151623,101.061188 54.474823,102.847099 52.504745,104.830635 
	C47.016754,114.013634 40.874035,122.357765 35.326469,131.508072 
	C29.752447,142.517014 24.547304,153.304199 19.563549,164.618744 
	C14.159576,181.102097 9.459908,197.384109 6.024721,214.435318 
	C5.074133,218.260788 6.956150,222.912842 1.388956,224.222198 
z"/>
<path fill="#28F19C" opacity="1.000000" stroke="none"
	d="
M134.016541,32.428375 
	C153.031158,20.919062 173.557312,13.360647 194.937408,8.023068 
	C204.056992,5.746351 213.211029,3.580920 222.639801,2.907952 
	C223.339005,2.858047 223.988220,2.107548 224.330338,1.341374 
	C245.354233,1.000000 266.708466,1.000000 288.531342,1.000000 
	C288.035492,2.709901 289.460022,2.838603 290.438354,2.936552 
	C322.218048,6.118308 351.595398,16.848373 379.956085,31.627499 
	C379.587311,34.366219 377.739685,34.929379 375.633484,35.143284 
	C373.475616,35.362434 371.310669,35.368080 369.146362,35.368519 
	C294.382599,35.383736 219.618774,35.405922 144.855118,35.302021 
	C141.225403,35.296978 137.067261,36.590347 134.016541,32.428375 
z"/>
<path fill="#01A0FA" opacity="1.000000" stroke="none" 
	d="
M225.468658,513.000000 
	C225.977234,511.332642 224.573105,511.155762 223.615234,511.069794 
	C200.875809,509.029358 179.356125,502.347748 158.272491,493.986725 
	C157.969360,493.866516 157.632614,493.831146 157.130646,493.431366 
	C156.887695,490.591675 158.732986,490.215820 160.586273,489.929596 
	C162.895523,489.572998 165.232162,489.631073 167.560318,489.630524 
	C226.618042,489.616028 285.675781,489.614532 344.733490,489.630554 
	C346.895782,489.631134 349.061768,489.609924 351.213318,489.870148 
	C353.282959,490.120422 355.224976,490.569366 355.244446,493.652832 
	C336.892426,501.810425 318.055603,506.968750 298.608521,510.250916 
	C295.242950,510.818970 291.287292,509.529602 288.664124,512.659363 
	C267.979095,513.000000 246.958206,513.000000 225.468658,513.000000 
z"/>
<path fill="#16CCC8" opacity="1.000000" stroke="none" 
	d="
M1.000000,224.468658 
	C3.019410,224.551315 3.070911,223.051788 2.950004,221.867188 
	C2.698139,219.399551 3.631379,217.165756 4.094781,214.414398 
	C5.437081,212.136841 7.380085,211.797089 9.411538,211.758820 
	C19.832355,211.562531 30.253288,211.525467 40.674297,211.780319 
	C42.568691,211.826660 44.245541,212.358170 46.037785,213.957596 
	C47.962360,216.379684 47.502663,218.806351 47.053970,220.990753 
	C43.999443,235.861282 44.285835,250.910400 44.318554,265.959320 
	C44.325283,269.053131 44.814445,272.274872 42.754929,275.521637 
	C41.680782,276.290405 40.928391,276.740112 40.110317,276.805420 
	C28.024176,277.770020 15.931922,277.608398 3.840327,276.906982 
	C2.976753,276.856873 2.319898,276.297913 1.362382,275.350647 
	C1.000000,258.312439 1.000000,241.624878 1.000000,224.468658 
z"/>
<path fill="#11C1D4" opacity="1.000000" stroke="none" 
	d="
M1.000000,275.466125 
	C14.305654,275.000153 27.611307,275.000275 41.375175,275.000610 
	C44.617706,275.800781 44.935513,278.107452 45.227867,280.473175 
	C47.124268,295.818695 50.361855,310.864105 55.199955,325.565247 
	C56.156513,328.471893 57.835575,331.469940 55.271061,334.894470 
	C53.797985,336.042511 52.459648,336.147247 51.141396,336.199982 
	C39.393929,336.669769 27.633877,336.052582 15.886050,336.589386 
	C15.026778,336.628662 14.300854,336.180725 13.263710,335.347290 
	C8.282743,323.752319 6.397708,311.781403 3.914244,299.946228 
	C3.192629,296.507294 3.978806,292.739777 1.393322,289.806885 
	C1.000000,285.310760 1.000000,280.621490 1.000000,275.466125 
z"/>
<path fill="#19D2C1" opacity="1.000000" stroke="none" 
	d="
M500.727173,178.660675 
	C505.774689,190.168442 507.399384,202.146515 510.110443,213.859909 
	C511.013550,217.761887 509.847992,222.016708 512.635925,225.298584 
	C513.000000,227.700012 513.000000,230.400024 513.000000,233.550018 
	C511.972748,235.138580 510.816711,236.066299 509.190704,236.085556 
	C496.933655,236.230637 484.662292,237.232727 471.982605,235.372589 
	C469.521698,234.505341 469.013519,232.776321 468.704041,230.919937 
	C466.109314,215.356155 462.844666,199.952805 457.758728,184.981598 
	C457.270813,183.545334 457.103607,182.064240 457.980194,180.189117 
	C459.428711,178.112946 461.256927,177.866379 463.102386,177.806396 
	C474.904205,177.422714 486.710510,177.723572 498.514526,177.626480 
	C499.180389,177.621017 499.787415,177.976089 500.727173,178.660675 
z"/>
<path fill="#15C9CB" opacity="1.000000" stroke="none" 
	d="
M470.777649,234.299622 
	C484.799194,233.999527 498.430939,233.999359 512.531372,233.999603 
	C513.000000,250.354233 513.000000,266.708466 513.000000,283.531342 
	C511.879883,285.341187 510.475311,286.112305 508.702515,286.153687 
	C496.935455,286.428528 485.168274,286.687164 473.406250,285.986176 
	C472.742065,285.946625 472.119690,285.680267 471.084564,285.135620 
	C468.861084,283.465332 468.758759,281.433350 468.958557,279.460938 
	C470.310303,266.117096 469.326050,252.739777 469.624146,239.382401 
	C469.660400,237.758850 469.268433,236.054947 470.777649,234.299622 
z"/>
<path fill="#11C1D4" opacity="1.000000" stroke="none" 
	d="
M470.734741,284.097229 
	C484.798676,284.002808 498.430695,284.004761 512.531372,284.003357 
	C513.000000,285.388885 513.000000,286.777802 513.000000,288.583344 
	C509.705353,288.615265 511.191895,291.179443 511.055450,292.441345 
	C509.961212,302.560730 507.872742,312.466309 504.914276,322.609741 
	C502.549835,324.928711 499.847443,325.347687 496.962463,325.351410 
	C485.737183,325.365967 474.511841,325.365997 462.852844,325.226166 
	C460.425598,323.720093 460.370544,321.796478 460.870575,319.752655 
	C463.467468,309.136932 466.220551,298.555847 467.889862,287.737091 
	C468.132355,286.165344 468.870178,284.946991 470.734741,284.097229 
z"/>
<path fill="#26EDA1" opacity="1.000000" stroke="none"
	d="
M133.515106,31.977428 
	C136.033997,33.055782 138.370422,33.003460 140.707336,33.003323 
	C218.282959,32.998741 295.858582,32.999775 373.434204,32.997555 
	C375.429077,32.997498 377.440277,33.103157 379.727722,32.111450 
	C391.178070,37.675854 401.495636,44.551319 411.635071,52.359398 
	C410.963470,56.332058 407.903168,56.191856 405.104706,56.261108 
	C394.973236,56.511818 384.836548,56.469261 374.705444,56.338028 
	C362.423492,56.178932 350.121124,57.074059 337.859375,55.704823 
	C336.851471,55.592270 335.892700,55.957092 334.492493,56.361042 
	C330.904572,57.808403 328.164032,56.076469 325.414673,55.146980 
	C308.936371,49.576046 292.005737,45.804119 274.721344,44.623501 
	C253.269806,43.158234 231.847046,44.062202 210.739014,49.034966 
	C199.861313,51.597603 189.180954,54.686687 178.802338,58.819748 
	C176.943512,59.559986 175.107330,60.397274 172.595871,59.644939 
	C170.925751,59.007038 169.701889,58.705372 168.313126,58.788570 
	C147.624405,60.028034 126.915604,59.157478 106.215767,59.268608 
	C103.381973,59.283825 99.978981,59.821838 98.894241,55.374725 
	C109.607155,46.143894 121.203926,38.809135 133.515106,31.977428 
z"/>
<path fill="#1DDBB6" opacity="1.000000" stroke="none" 
	d="
M501.064697,178.564331 
	C493.786987,180.955338 486.301819,179.603561 478.898743,180.000504 
	C472.485870,180.344345 466.025665,179.264862 459.301697,180.876984 
	C456.006927,181.467316 455.308044,179.045532 454.574799,177.169327 
	C448.917297,162.693207 441.249573,149.307480 432.725525,136.377563 
	C431.075531,133.874786 430.819153,131.483444 433.166168,128.815048 
	C436.641022,127.190269 439.740509,128.747192 442.867889,128.655319 
	C453.662079,128.338242 464.478912,129.224014 475.260406,128.061935 
	C476.284241,127.951591 477.230316,128.272827 478.604828,128.765396 
	C488.826294,144.221756 495.827271,160.792023 501.064697,178.564331 
z"/>
<path fill="#21E3AD" opacity="1.000000" stroke="none" 
	d="
M479.022125,128.532990 
	C476.774048,130.431335 474.163605,130.979370 471.525635,130.942215 
	C459.822388,130.777481 448.103394,131.626083 436.416687,130.447571 
	C435.217804,130.326675 434.121857,130.490433 432.702515,131.397614 
	C432.055573,131.719437 431.803925,131.764786 431.169525,131.776855 
	C430.544281,131.662735 430.301788,131.581924 429.732300,131.303894 
	C420.573425,120.795441 412.136047,110.134384 402.221527,100.786766 
	C400.445038,99.111839 399.387726,97.018173 401.587891,94.349609 
	C403.816223,92.848892 405.977386,92.736137 408.132141,92.712090 
	C421.372406,92.564255 434.613037,92.630737 447.853699,92.663116 
	C450.034515,92.668457 452.111664,93.204575 454.658569,93.819824 
	C464.134216,104.617943 471.839630,116.205902 479.022125,128.532990 
z"/>
<path fill="#23E7A8" opacity="1.000000" stroke="none" 
	d="
M454.971130,93.639450 
	C452.964294,95.057426 450.641144,95.004997 448.318024,95.003464 
	C436.071167,94.995377 423.824127,95.033974 411.577515,94.977676 
	C408.250366,94.962379 404.969513,95.135239 401.313202,96.002487 
	C399.073334,97.633736 397.464264,96.746132 396.011200,95.518578 
	C387.880463,88.649719 379.378448,82.299843 370.380341,76.597336 
	C368.477692,75.391541 366.396271,73.742546 368.720215,70.666504 
	C371.291931,69.535233 373.636200,69.689598 375.944122,69.661743 
	C393.516571,69.449646 411.092987,69.950127 428.663727,69.374161 
	C429.505402,69.346565 430.298187,69.614136 431.575256,69.839432 
	C440.111603,77.243248 447.757874,85.007729 454.971130,93.639450 
z"/>
<path fill="#24E9A5" opacity="1.000000" stroke="none" 
	d="
M431.913574,69.581566 
	C429.551117,71.939316 426.570251,72.004318 423.557617,72.003990 
	C405.314575,72.002029 387.071564,72.014328 368.352112,72.030212 
	C365.908936,73.490074 363.989288,72.685898 362.258148,71.689751 
	C353.874329,66.865532 345.133392,62.803680 336.195435,59.133522 
	C334.669006,58.506725 333.135773,57.708733 332.811493,55.436523 
	C335.201935,53.850716 337.718140,54.000240 340.213837,54.000328 
	C361.190674,54.001083 382.167542,54.002487 403.144379,53.998070 
	C405.802734,53.997509 408.489288,54.183807 411.440125,52.810661 
	C418.944672,57.666462 425.700745,63.067886 431.913574,69.581566 
z"/>
<path fill="#03A5F5" opacity="1.000000" stroke="none" 
	d="
M133.473969,481.694641 
	C124.162407,476.874603 115.660339,471.377228 107.098404,465.416748 
	C106.713707,462.276337 108.543961,461.344635 110.859962,460.957153 
	C112.829414,460.627655 114.831581,460.652466 116.824013,460.648834 
	C136.085907,460.613647 155.348343,460.707031 174.609344,460.578613 
	C178.906128,460.549957 183.141556,462.243439 187.882996,460.760437 
	C190.455566,459.470856 192.540848,460.200409 194.604218,460.840942 
	C220.189285,468.783417 246.433197,471.091156 273.034576,469.525970 
	C285.328644,468.802582 297.463287,466.573059 309.395020,463.409637 
	C312.452148,462.599091 315.512543,461.797485 319.167358,461.690002 
	C323.151917,462.825104 326.712830,462.836365 330.401001,462.789886 
	C353.942657,462.493073 377.487671,462.573761 401.031281,462.723846 
	C402.982513,462.736267 405.062653,462.626373 406.885315,464.629822 
	C399.305939,470.752472 391.311890,476.198151 382.429382,480.907532 
	C374.547211,482.638397 366.882812,482.383881 359.227722,482.382568 
	C291.108337,482.371094 222.988937,482.378418 154.869537,482.372162 
	C147.885651,482.371521 140.888977,482.644714 133.473969,481.694641 
z"/>
<path fill="#02A3F7" opacity="1.000000" stroke="none"
	d="
M133.327850,481.992065 
	C134.641708,478.958679 137.442734,480.048401 139.763947,480.046234 
	C201.674774,479.988098 263.585693,479.999969 325.496582,480.000000 
	C341.972870,480.000000 358.449127,479.996277 374.925415,480.005005 
	C377.081512,480.006134 379.265381,479.825867 381.715576,480.886719 
	C373.645447,485.999573 364.864349,490.300842 355.415283,494.058441 
	C354.085052,491.628113 351.900604,492.014862 349.952057,492.014404 
	C287.148895,492.000122 224.345703,491.999542 161.542542,492.030365 
	C160.242691,492.031006 158.943039,492.426575 157.296509,492.872223 
	C148.653198,490.584534 141.321960,486.010010 133.327850,481.992065 
z"/>
<path fill="#05A8F1" opacity="1.000000" stroke="none" 
	d="
M407.438599,464.906158 
	C382.035065,465.030243 356.938599,465.046265 331.842438,464.968933 
	C327.729309,464.956268 323.617462,464.532654 319.234161,464.088867 
	C318.708405,461.226288 320.723083,460.537903 322.584198,459.875366 
	C334.468842,455.644318 346.182648,451.017334 357.348053,445.099884 
	C358.733643,444.365570 360.128143,444.054718 362.076538,444.669342 
	C365.314789,445.934845 368.084137,444.620880 370.881165,444.625427 
	C387.347717,444.652252 403.815369,444.518372 420.280090,444.744690 
	C422.995392,444.781952 426.632446,443.837860 427.236816,448.666260 
	C420.612030,454.331146 414.178894,459.549042 407.438599,464.906158 
z"/>
<path fill="#0EBADC" opacity="1.000000" stroke="none" 
	d="
M461.750092,324.018066 
	C468.192993,322.160339 474.380951,323.171143 480.494385,323.041412 
	C488.298645,322.875793 496.109100,323.001526 504.374878,323.002075 
	C502.701630,333.995880 497.917267,344.150146 494.422791,354.991241 
	C479.880096,355.356720 465.682159,355.840973 451.095032,354.648346 
	C448.903198,353.245850 448.571350,351.477173 449.276001,349.650757 
	C452.305969,341.796936 455.588104,334.043945 458.848755,326.283295 
	C459.317719,325.167206 460.149689,324.389923 461.750092,324.018066 
z"/>
<path fill="#0CB8DF" opacity="1.000000" stroke="none" 
	d="
M449.766663,353.002991 
	C462.629333,353.001434 475.091583,352.985504 487.553772,353.015961 
	C489.668365,353.021118 491.941895,352.591370 493.837738,354.840393 
	C490.985901,364.498413 485.617157,372.786652 481.482666,381.946503 
	C479.781403,382.609161 478.599121,383.559204 476.980652,383.510956 
	C464.055481,383.125610 451.122284,383.637238 438.197205,383.192169 
	C437.044037,383.152435 435.877686,383.028320 434.457764,382.214172 
	C432.494690,380.231079 432.663605,378.317993 433.745270,376.492798 
	C437.935089,369.423126 442.139496,362.362091 446.313873,355.283203 
	C447.003632,354.113464 447.936829,353.211700 449.766663,353.002991 
z"/>
<path fill="#0AB2E6" opacity="1.000000" stroke="none" 
	d="
M433.575012,379.748657 
	C435.647278,381.283539 437.695312,380.985870 439.659851,380.989563 
	C449.928040,381.008759 460.196533,381.037415 470.464447,380.976807 
	C473.794952,380.957184 477.078125,381.131409 480.731689,382.045990 
	C476.404327,390.020508 472.178497,398.282043 465.979431,405.683167 
	C463.844940,407.293762 461.698883,408.199738 459.316925,408.230072 
	C445.379944,408.407379 431.442139,408.587433 417.506714,408.125214 
	C416.678650,408.097748 415.856781,407.950531 414.714539,407.360443 
	C412.620331,405.456696 412.586761,403.471985 413.913788,401.751587 
	C419.447388,394.577667 425.145660,387.531647 430.967316,380.587982 
	C431.505798,379.945709 432.339172,379.699554 433.575012,379.748657 
z"/>
<path fill="#08AEEA" opacity="1.000000" stroke="none" 
	d="
M413.603607,404.716370 
	C415.828094,406.391388 418.055603,405.982117 420.175140,405.985840 
	C435.086853,406.011902 449.998657,405.999207 465.367981,405.998291 
	C460.321014,414.041443 454.083252,421.502350 447.362244,428.967651 
	C443.191376,430.197571 439.254059,430.413239 435.261475,430.389252 
	C423.505829,430.318695 411.749420,430.411682 399.993713,430.332642 
	C397.198639,430.313843 394.343353,430.566925 391.300049,429.120697 
	C388.679474,427.170319 388.841888,424.860565 390.586121,423.310486 
	C397.397675,417.257111 404.061646,411.043243 410.855042,404.972229 
	C411.469025,404.423492 412.399353,404.427094 413.603607,404.716370 
z"/>
<path fill="#07ACED" opacity="1.000000" stroke="none" 
	d="
M389.617371,426.690125 
	C406.218048,429.173798 422.632782,427.450439 438.998505,428.011597 
	C441.457520,428.095886 443.978821,427.555359 446.702209,428.872375 
	C440.586884,435.685150 434.125000,442.263367 427.354126,448.977417 
	C425.790375,446.188965 423.151947,447.039398 420.965332,447.032043 
	C403.501862,446.973267 386.038055,447.005157 368.574371,446.991211 
	C366.257019,446.989380 363.903717,447.232025 361.287537,446.120300 
	C360.334442,443.692871 361.880768,442.693481 363.456421,441.726471 
	C370.747650,437.251831 377.911591,432.585052 384.807159,427.517609 
	C386.190979,426.500671 387.573792,425.712189 389.617371,426.690125 
z"/>
<path fill="#0CB8DF" opacity="1.000000" stroke="none" 
	d="
M12.936255,335.435303 
	C26.598251,332.843292 40.411797,334.544678 54.642967,333.970032 
	C57.696758,333.461182 58.827538,335.290222 59.529369,337.122192 
	C64.967979,351.318512 72.720573,364.267761 80.838234,377.023621 
	C82.081810,378.977722 82.751259,380.889435 81.179031,383.400391 
	C79.621323,385.041260 77.930885,385.165558 76.273918,385.203552 
	C63.636692,385.493134 50.998093,385.417419 38.359833,385.259613 
	C37.185932,385.244965 36.051064,384.983551 34.570740,384.250061 
	C28.404421,375.150452 24.176535,365.527496 20.047651,355.860077 
	C17.262449,349.338837 14.713394,342.727020 12.936255,335.435303 
z"/>
<path fill="#09B1E8" opacity="1.000000" stroke="none" 
	d="
M34.202156,384.350159 
	C39.027142,382.354645 44.055195,383.199249 49.012318,383.002533 
	C59.448036,382.588348 69.922295,383.843048 80.725098,382.121552 
	C83.589806,381.013672 84.814087,382.831207 86.013809,384.338287 
	C94.043236,394.424744 102.453033,404.161499 111.721870,413.145203 
	C113.440407,414.810852 114.688995,416.855255 112.214661,419.443298 
	C107.300575,420.826599 102.651314,420.356537 98.045586,420.332947 
	C85.326187,420.267761 72.602173,420.718872 59.422081,420.086731 
	C50.733871,410.673370 43.873062,400.258545 37.208351,389.704987 
	C36.172794,388.065186 35.225292,386.369720 34.202156,384.350159 
z"/>
<path fill="#07ACED" opacity="1.000000" stroke="none" 
	d="
M59.089172,420.420319 
	C60.454754,417.665497 62.910164,418.011383 65.215431,418.008209 
	C80.865944,417.986664 96.516479,417.985443 112.643066,417.969452 
	C115.466713,416.579498 117.233536,417.795471 118.930565,419.273163 
	C126.596382,425.948334 134.907623,431.732269 143.424957,437.255951 
	C145.785934,438.787048 148.998672,440.345154 146.141571,444.447388 
	C143.526520,445.431885 141.188705,445.334290 138.875763,445.342468 
	C122.791626,445.399323 106.707352,445.371338 90.623116,445.363129 
	C87.964836,445.361755 85.316376,445.254578 82.316330,444.254089 
	C73.861626,436.727081 66.255844,429.005096 59.089172,420.420319 
z"/>
<path fill="#05A8F1" opacity="1.000000" stroke="none"
	d="
M82.023438,444.351898 
	C84.777962,443.138611 87.742210,442.974731 90.758011,442.979919 
	C109.225937,443.011719 127.693970,442.983307 146.637665,442.965729 
	C149.319061,440.721375 151.523254,442.082764 153.454514,443.227570 
	C163.370178,449.105133 173.941986,453.524353 184.684937,457.583710 
	C186.556381,458.290894 188.536621,458.836548 189.103134,461.496704 
	C188.537048,463.468628 187.447678,463.577332 185.919495,463.507294 
	C161.500229,462.388275 137.065460,463.276367 112.638428,463.016174 
	C110.770782,462.996277 108.989731,463.294830 107.225128,464.836365 
	C98.268280,458.793335 89.763657,452.274078 82.023438,444.351898 
z"/>
<path fill="#1BD6BC" opacity="1.000000" stroke="none" 
	d="
M46.176239,214.850723 
	C39.086594,213.102234 32.249729,214.226593 25.482531,214.041016 
	C18.687412,213.854675 11.883190,214.000366 4.624924,214.000763 
	C6.371286,197.855240 11.206685,182.396393 16.415970,167.034027 
	C16.724190,166.125076 16.918739,165.177551 17.505596,164.070465 
	C19.208216,163.233902 20.654572,162.798752 22.157454,162.790314 
	C34.929203,162.718674 47.706554,162.128235 60.876442,163.331451 
	C63.573109,164.986465 63.637756,167.303024 62.724380,169.284454 
	C56.350464,183.111710 52.376774,197.731918 48.207836,212.293106 
	C47.929035,213.266891 47.462704,214.146637 46.176239,214.850723 
z"/>
<path fill="#24E9A5" opacity="1.000000" stroke="none" 
	d="
M98.639999,55.030136 
	C100.598610,57.516068 103.261955,56.981770 105.694611,56.984921 
	C125.787682,57.010948 145.880814,56.988411 165.973862,57.016819 
	C168.107834,57.019836 170.304367,56.634861 172.692703,57.883072 
	C173.537247,60.696106 171.700119,61.785694 169.880142,62.534916 
	C157.992477,67.428627 147.303009,74.447365 136.477478,81.222984 
	C134.850830,82.241089 133.279022,82.963684 130.946060,82.220787 
	C114.630463,84.473442 98.616096,82.997917 82.649597,83.307312 
	C79.034248,83.377365 75.330147,83.379532 72.094955,80.381577 
	C80.060349,71.017761 88.634651,62.498631 98.639999,55.030136 
z"/>
<path fill="#1DDBB6" opacity="1.000000" stroke="none" 
	d="
M62.229172,164.997955 
	C49.554562,165.000793 37.275761,165.005447 24.996967,164.996429 
	C22.846886,164.994858 20.669189,165.167267 18.235577,164.066177 
	C21.945421,152.495667 27.286333,141.684799 33.625446,131.044495 
	C36.833279,129.031540 40.025459,128.614090 43.398380,128.631287 
	C53.155575,128.681015 62.913807,128.584396 72.670738,128.689972 
	C75.119545,128.716461 77.660202,128.428955 80.243591,130.077545 
	C82.546715,132.079300 82.600433,134.129059 81.293510,136.157471 
	C75.732918,144.787857 70.614006,153.674438 65.668068,162.665573 
	C65.010445,163.861053 64.061043,164.770004 62.229172,164.997955 
z"/>
<path fill="#22E5AA" opacity="1.000000" stroke="none" 
	d="
M71.578094,80.090179 
	C87.584305,81.959526 103.363197,80.500198 119.093384,81.070801 
	C123.216225,81.220360 127.234566,78.896721 131.739594,80.888641 
	C132.882935,82.979523 131.786118,84.197220 130.462097,85.322083 
	C122.353676,92.210724 113.847221,98.636711 106.289940,106.166954 
	C105.167686,107.285194 103.722160,107.663254 101.714943,107.414612 
	C87.134071,107.322083 72.978546,107.477882 58.825108,107.290489 
	C56.117153,107.254631 53.005287,107.920761 51.034515,104.407898 
	C57.247589,95.671478 63.555885,87.340683 71.578094,80.090179 
z"/>
<path fill="#20E1AF" opacity="1.000000" stroke="none" 
	d="
M50.578873,104.115005 
	C53.037418,105.053734 55.360260,105.005219 57.684010,105.003654 
	C70.098473,104.995316 82.512970,105.011787 94.927399,104.990631 
	C97.421471,104.986382 99.893387,105.043724 102.698929,105.951828 
	C103.971558,107.595833 103.421173,108.973694 102.387558,110.120819 
	C96.655685,116.482193 91.431602,123.268860 85.845673,129.750473 
	C84.792068,130.973007 83.703728,132.328323 81.461456,132.171112 
	C75.432396,130.262466 69.582420,131.071945 63.805931,131.043427 
	C54.055702,130.995285 44.304153,131.212708 34.250511,131.107025 
	C37.515701,121.802711 43.875687,114.438240 49.113586,106.378784 
	C49.548889,105.708992 49.887627,104.976448 50.578873,104.115005 
z"/>
<path fill="white" opacity="1.000000" stroke="none"
	d="
M81.052902,132.392731 
	C88.361267,123.583748 94.752884,114.395714 102.977631,106.350052 
	C112.142242,97.279694 121.664703,89.101868 131.969238,81.360382 
	C139.957382,76.936928 146.992111,71.516647 154.853043,67.362808 
	C160.715927,64.264771 166.707031,61.532940 172.867096,58.436058 
	C179.151016,56.044807 185.272568,53.990685 191.378021,51.889805 
	C205.105835,47.166088 219.336487,44.993217 233.631042,42.765076 
	C241.174927,41.589184 248.826248,41.457634 256.162964,41.471287 
	C273.076202,41.502747 290.067780,42.968613 306.636505,47.242283 
	C315.249481,49.463871 323.778687,51.899364 332.500305,55.019768 
	C344.627899,60.010769 356.237885,65.249596 367.555298,71.894211 
	C379.173828,79.313370 390.066040,87.135689 400.538696,96.018440 
	C411.426270,106.662766 421.587158,117.622711 431.011719,129.687119 
	C431.535461,130.589630 432.375610,130.191757 432.556763,130.992310 
	C432.344025,131.232422 432.122467,131.436356 432.214844,131.555222 
	C439.464508,141.889587 445.910339,152.541412 451.282990,163.794327 
	C453.913757,169.304352 455.977966,175.084900 458.627350,180.927734 
	C464.586823,196.713638 468.066040,212.853226 470.925293,229.143616 
	C471.152771,230.439804 471.000580,231.802628 471.096130,233.567078 
	C472.873077,241.964828 471.852692,250.034836 471.970093,258.050507 
	C472.092499,266.410492 472.441193,274.811493 471.095093,283.563843 
	C468.734070,294.910645 467.348602,306.049072 464.007874,316.760864 
	C463.337097,318.911530 462.695557,321.071320 462.103577,323.615540 
	C458.226166,333.446228 454.943207,343.165375 450.206360,352.645020 
	C444.977509,361.817169 440.474640,371.049225 434.103821,379.543701 
	C427.798187,388.327301 421.342865,396.564789 414.093353,404.573578 
	C406.200531,412.217529 398.641205,419.778748 390.028015,426.641357 
	C385.910004,428.461395 383.128540,431.725281 379.667053,434.007599 
	C373.636200,437.984039 367.732697,442.127869 361.064087,445.643555 
	C347.550385,452.936646 333.820068,458.987091 319.150085,463.551971 
	C310.400787,465.701813 301.875336,467.731018 293.263794,469.282043 
	C286.526520,470.495483 279.703461,471.578705 272.880768,471.888916 
	C263.236267,472.327362 253.552902,472.177704 243.893433,471.958435 
	C229.479797,471.631256 215.421371,468.847198 201.522888,465.185791 
	C197.616409,464.156677 193.729080,463.054840 189.436249,461.934570 
	C174.824280,456.643005 160.992020,450.567108 147.475647,442.983582 
	C140.032547,437.963867 132.884613,433.062866 125.896187,427.944122 
	C121.716431,424.882629 117.786415,421.480194 113.431633,418.096130 
	C107.063423,410.789978 99.568123,404.980103 93.883591,397.440979 
	C89.980629,392.264709 85.799355,387.298309 81.430435,382.099945 
	C77.520432,374.748413 72.530746,368.390869 68.552666,361.380127 
	C63.591164,352.636261 59.879082,343.392792 55.435303,334.133728 
	C52.448914,323.821381 48.826027,313.957458 46.781403,303.623474 
	C45.266964,295.969208 43.666153,288.353546 42.968132,280.569397 
	C42.825237,278.975861 42.316963,277.415100 41.905251,275.420044 
	C41.888969,266.228455 42.167194,257.450378 41.944244,248.685089 
	C41.660183,237.517212 43.757843,226.663925 45.685822,215.365936 
	C48.280785,202.067017 51.718166,189.439728 56.931713,177.334061 
	C58.588104,173.487976 60.140251,169.597000 61.786736,165.363678 
	C67.731758,153.959320 73.693489,142.955460 81.052902,132.392731 
z"/>
<path fill="#1DDBB6" opacity="1.000000" stroke="none" 
	d="
M432.103333,130.869797 
	C431.931885,131.004959 431.519745,130.777481 431.131287,130.275177 
	C431.390900,130.169281 431.626801,130.338226 432.103333,130.869797 
z"/>
<path fill="#17CDC7" opacity="1.000000" stroke="none" 
	d="
M255.674347,226.736298 
	C261.830353,224.487976 264.747620,218.882507 269.651245,215.019836 
	C273.922028,216.339325 278.019501,216.675522 282.221039,216.667130 
	C293.035583,216.645538 303.853058,216.440430 314.664825,216.793900 
	C318.094299,216.906006 321.116211,217.715424 320.247162,222.696671 
	C310.600830,232.674576 301.160919,242.231400 291.418213,251.924622 
	C287.918732,253.012466 284.660614,253.389862 281.319000,253.383331 
	C265.096771,253.351562 248.874451,253.360840 232.652191,253.376785 
	C229.654037,253.379730 226.703445,253.146225 223.351578,252.179626 
	C214.975830,244.250763 207.064041,236.453827 199.013550,228.348434 
	C199.830460,226.049377 201.702942,225.849503 203.538132,225.807373 
	C219.819138,225.433533 236.102829,225.682785 252.385452,225.659637 
	C253.390167,225.658203 254.320602,226.104156 255.674347,226.736298 
z"/>
<path fill="#13C5D0" opacity="1.000000" stroke="none" 
	d="
M264.439545,293.095001 
	C256.685577,286.815460 256.685242,286.815125 249.691696,293.810059 
	C247.699905,295.802246 245.710754,297.797089 243.414642,299.920746 
	C240.282318,301.616272 237.274734,302.360413 234.022614,302.362274 
	C220.034592,302.370300 206.046341,302.439606 192.058960,302.304962 
	C189.779587,302.283020 187.338409,302.588379 185.139481,300.393280 
	C193.336029,291.383850 201.803238,282.801147 210.574890,274.087708 
	C213.542862,272.495422 216.352417,271.666718 219.430786,271.655792 
	C245.486298,271.563293 271.541992,271.701385 297.597412,271.587433 
	C298.097107,271.585266 298.583252,271.718323 299.558716,271.844757 
	C305.619751,277.012726 311.195679,282.138489 316.911804,287.578979 
	C317.818695,292.193115 315.036835,293.048828 311.747864,293.198151 
	C303.779419,293.559967 295.803070,293.364624 287.830688,293.347931 
	C280.193420,293.331940 272.550262,293.630707 264.439545,293.095001 
z"/>
<path fill="#1AD3BF" opacity="1.000000" stroke="none" 
	d="
M320.349426,222.979980 
	C319.547546,219.384521 316.974030,218.954117 313.850708,218.971756 
	C301.211121,219.043167 288.570862,218.981506 275.930908,219.011612 
	C273.290527,219.017899 270.850342,218.860184 270.045868,215.262192 
	C280.853149,203.906387 291.746613,192.930862 302.899323,181.782196 
	C306.077148,180.228745 309.121185,180.462280 312.270874,180.469528 
	C326.657806,180.502655 341.058105,181.273346 355.433350,180.022049 
	C357.248169,179.864075 359.102112,179.757660 360.839050,181.619415 
	C347.623383,195.637680 334.140747,209.239944 320.349426,222.979980 
z"/>
<path fill="#10BFD6" opacity="1.000000" stroke="none" 
	d="
M184.565674,300.096527 
	C203.965485,299.987091 223.062119,300.007629 242.633820,300.039490 
	C231.623932,311.648621 220.138947,323.246460 208.344955,334.981720 
	C206.342941,334.183563 204.494858,334.404785 202.675415,334.392426 
	C189.210800,334.300934 175.744934,334.497681 162.281830,334.270569 
	C159.391693,334.221832 156.055862,334.688324 154.893372,330.359772 
	C164.723373,320.001709 174.492935,310.114105 184.565674,300.096527 
z"/>
<path fill="#15C9CB" opacity="1.000000" stroke="none" 
	d="
M299.909149,271.574463 
	C298.021057,274.148804 295.311371,274.000214 292.641998,273.999329 
	C265.705353,273.990631 238.768692,273.982941 211.355682,273.965942 
	C215.032120,269.691589 218.880157,265.060760 223.427872,261.269104 
	C227.549500,257.832733 227.036331,255.420975 223.026215,252.357574 
	C224.568649,251.230743 226.354752,250.997070 228.206726,250.998230 
	C247.453339,251.010315 266.699982,250.990387 285.946472,251.037704 
	C287.409119,251.041306 288.870605,251.489410 290.723999,251.895966 
	C286.693939,257.195007 286.752960,257.137878 291.578827,262.123749 
	C294.422333,265.061523 297.852966,267.492279 299.909149,271.574463 
z"/>
<path fill="#1CD8B9" opacity="1.000000" stroke="none" 
	d="
M361.413025,181.909607 
	C347.074280,183.624710 332.987122,182.785065 318.923981,183.015762 
	C313.938324,183.097549 308.987091,182.972336 303.637451,181.693298 
	C316.112915,168.959518 329.067200,156.309967 341.909424,143.769882 
	C351.244415,153.081192 361.013000,162.824997 370.992157,172.778809 
	C367.921783,175.760727 364.820923,178.772278 361.413025,181.909607 
z"/>
<path fill="#1AD4BE" opacity="1.000000" stroke="none" 
	d="
M206.563599,178.847839 
	C209.004654,178.806274 209.873215,180.409637 211.005539,181.533951 
	C218.285461,188.762360 225.529846,196.026566 232.917648,203.583740 
	C232.535995,207.774765 229.353989,207.180222 226.919891,207.239532 
	C214.602676,207.539658 202.280182,207.359024 189.959702,207.361588 
	C185.487991,207.362518 180.924637,207.839539 176.325027,205.267776 
	C167.977020,197.243973 160.079330,189.445419 152.046936,181.337769 
	C152.982178,178.833420 155.086853,178.796906 157.037796,178.775528 
	C173.385895,178.596420 189.734787,178.443832 206.563599,178.847839 
z"/>
<path fill="#0EBADC" opacity="1.000000" stroke="none" 
	d="
M154.645386,330.026093 
	C156.970322,332.137115 159.667328,332.000122 162.328827,331.999847 
	C175.748840,331.998596 189.168976,331.974426 202.588760,332.029755 
	C204.609772,332.038086 207.105362,331.333527 207.972610,334.723053 
	C195.543732,346.363739 184.729141,359.277435 172.620941,370.850494 
	C162.796936,361.011993 153.040192,351.240875 142.972351,341.158173 
	C146.707886,337.544037 150.522430,333.853455 154.645386,330.026093 
z"/>
<path fill="#10BFD6" opacity="1.000000" stroke="none" 
	d="
M306.321320,335.258179 
	C298.657501,327.939087 291.438782,320.832855 284.089050,313.422180 
	C282.815643,310.161682 284.422455,308.766541 286.963654,308.081268 
	C288.722076,307.607056 290.572021,307.667236 292.390472,307.658630 
	C304.790222,307.599915 317.190094,307.626556 329.589935,307.638428 
	C332.613373,307.641327 335.521271,308.048737 338.666870,309.731689 
	C347.022491,317.749725 354.927856,325.541290 362.975647,333.648071 
	C362.279785,335.734283 360.650757,336.124054 358.956146,336.150726 
	C342.367950,336.411682 325.778717,336.711517 309.193665,335.996552 
	C308.367096,335.960907 307.556335,335.735718 306.321320,335.258179 
z"/>
<path fill="#18D0C3" opacity="1.000000" stroke="none" 
	d="
M176.013489,205.351028 
	C192.750107,205.028305 209.625534,205.023911 226.500885,204.986679 
	C228.465454,204.982346 230.485458,205.306931 232.703369,204.123993 
	C240.646576,211.372528 248.243759,218.856628 255.978378,226.649353 
	C243.389877,229.107300 230.564072,227.573227 217.790100,227.969543 
	C211.808029,228.155167 205.815842,228.015533 199.351547,228.031616 
	C191.300659,220.579819 183.726471,213.119675 176.013489,205.351028 
z"/>
<path fill="#1CD8B9" opacity="1.000000" stroke="none" 
	d="
M206.903976,178.572571 
	C205.026367,181.143448 202.323257,180.999069 199.658340,180.999771 
	C184.059143,181.003876 168.459930,181.010666 152.386505,181.022614 
	C149.021545,178.304871 146.130829,175.581070 143.473328,173.077026 
	C153.386383,163.196472 163.193878,153.421143 173.220718,143.427185 
	C184.125931,154.751266 195.444748,166.504822 206.903976,178.572571 
z"/>
<path fill="#0EBADC" opacity="1.000000" stroke="none" 
	d="
M306.014709,335.353638 
	C308.767792,334.140137 311.731628,333.972137 314.747772,333.979095 
	C330.553589,334.015564 346.359558,333.985291 362.641785,333.970764 
	C365.651642,336.334412 368.185242,338.705536 370.456207,340.830902 
	C360.529358,350.708496 350.717072,360.472107 340.750946,370.388763 
	C329.607697,359.203979 317.880432,347.432983 306.014709,335.353638 
z"/>
<path fill="#12C2D3" opacity="1.000000" stroke="none" 
	d="
M338.980591,309.649048 
	C322.800415,309.972534 306.483612,309.969482 290.166992,310.021515 
	C287.918945,310.028687 285.340790,309.471588 284.067566,312.742981 
	C277.378815,306.655853 270.799500,300.193909 264.090027,293.428040 
	C265.447693,290.663544 267.905029,291.011353 270.209686,291.008606 
	C283.695618,290.992401 297.181580,291.000732 310.667511,290.997284 
	C312.997925,290.996674 315.442627,291.263306 316.872711,288.233032 
	C324.316010,295.042480 331.579987,302.191223 338.980591,309.649048 
z"/>
</svg>